<svg xmlns="http://www.w3.org/2000/svg" viewBox="0 0 64 64">
  <rect width="64" height="64" rx="18" fill="#F6E1E7"/>
  <g fill="#1F5C52" transform="translate(7 6) scale(.78)">
    <ellipse cx="16.5" cy="21.5" rx="6.5" ry="8.8" transform="rotate(-20 16.5 21.5)"/>
    <ellipse cx="28.5" cy="14.5" rx="6.6" ry="9" transform="rotate(-7 28.5 14.5)"/>
    <ellipse cx="42" cy="15.5" rx="6.6" ry="9" transform="rotate(8 42 15.5)"/>
    <ellipse cx="51.5" cy="25" rx="6.3" ry="8.5" transform="rotate(21 51.5 25)"/>
    <path d="M16.5 47.5C16.5 41.3 19.7 35.1 25 31.3C27.7 29.4 30 30.6 32 33.5C34 30.6 36.3 29.4 39 31.3C44.3 35.1 47.5 41.3 47.5 47.5C47.5 53.8 42.5 56.6 37.5 54.7C33.8 53.3 30.2 53.3 26.5 54.7C21.5 56.6 16.5 53.8 16.5 47.5Z"/>
  </g>
</svg>
